<?xml version="1.0" encoding="utf-8"?>
<!-- Generator: Adobe Illustrator 24.0.2, SVG Export Plug-In . SVG Version: 6.00 Build 0)  -->
<svg version="1.1" id="Camada_1" xmlns="http://www.w3.org/2000/svg" xmlns:xlink="http://www.w3.org/1999/xlink" x="0px" y="0px"
	 viewBox="0 0 1024 1024" style="enable-background:new 0 0 1024 1024;" xml:space="preserve">
<style type="text/css">
	.st0{fill:#FFFFFF;}
</style>
<g transform="translate(0.000000,1024.000000) scale(0.100000,-0.100000)">
	<path class="st0" d="M3655,8174c-146-16-283-39-381-64c-676-175-1222-668-1493-1347c-40-101-81-229-81-254c0-8,57-64,126-124
		c138-120,465-385,475-385c3,0,9,34,12,75c15,169,68,355,157,541c154,325,394,576,695,726c318,159,713,191,1067,87
		c136-40,322-133,429-213c133-101,210-191,382-450c86-130,158-236,160-236s78,111,168,248c127,192,183,266,249,333
		c165,167,395,287,669,350c112,26,355,36,474,20c636-85,1128-587,1272-1296l22-110l109-55c204-103,361-222,526-401
		c51-54,96-99,100-99c11,0,2,365-11,470c-114,881-622,1641-1323,1980c-303,146-609,209-957,197c-470-17-864-169-1260-487l-39-31
		l-83,67c-285,230-646,385-1019,439C3993,8170,3727,8182,3655,8174z"/>
	<path class="st0" d="M1365,5963l-187-215l23-23c36-34,486-383,830-642c588-444,984-717,1349-930c880-514,1568-775,2270-859
		c201-25,601-25,800,0c460,56,886,188,1296,400c419,219,714,471,980,842l64,89v168v168l-56,76c-124,168-303,328-558,501
		c-508,345-1017,527-1656,593c-158,17-586,17-750,1c-474-48-964-168-1425-349c-149-59-524-237-628-299c-54-32-338-225-360-244
		c-4-4,115-75,266-158l274-151l184,94c661,337,1304,511,1964,531c662,20,1264-138,1760-464c123-81,297-216,350-272l30-32l-132-128
		c-443-432-937-673-1578-772c-169-26-570-36-741-19c-604,62-1251,308-2074,789c-576,337-1033,660-1782,1258l-327,262L1365,5963z"/>
	<path class="st0" d="M2113,4307c-45-29-228-131-407-227s-326-178-326-183c0-4,72-116,161-248c120-181,164-239,176-235
		c60,24,982,612,983,627c0,6-484,311-499,316C2198,4357,2158,4335,2113,4307z"/>
	<path class="st0" d="M2798,3727c-153-100-277-187-275-194c4-20,172-206,281-311c319-307,730-590,1206-831c425-216,737-340,1030-412
		c36-9,112-14,215-13c151,1,168,3,296,37c155,41,442,143,616,218c435,189,818,427,1150,713c45,39,81,71,80,73c-2,1-79-13-172-32
		c-315-63-646-95-983-95h-203l-57-29c-156-78-469-175-647-201c-46-7-109-9-150-5c-286,28-874,287-1310,578c-262,175-392,281-612,503
		c-101,101-184,184-185,184C3076,3910,2950,3828,2798,3727z"/>
</g>
</svg>
